<svg width="513" height="513" viewBox="0 0 513 513" fill="none" xmlns="http://www.w3.org/2000/svg">
<path fill-rule="evenodd" clip-rule="evenodd" d="M0.351562 456.191V141.337C27.0488 47.091 142.439 20.7272 256.6 20.7272C279.845 20.7272 304.614 17.8115 329.493 14.8828C400.521 6.52196 472.446 -1.94465 512.352 57.0219V353.844C461.003 435.415 352.057 492.137 256.6 492.137C118.187 521.566 39.6528 503.445 0.351562 456.191Z" fill="url(#paint0_linear_473_1882)"/>
<path fill-rule="evenodd" clip-rule="evenodd" d="M512.352 120.109L0.351562 210.691V0.730957H512.352V120.109Z" fill="url(#paint1_linear_473_1882)"/>
<path fill-rule="evenodd" clip-rule="evenodd" d="M0.351598 385.436L512.352 288.245L512.352 512.731L0.351586 512.731L0.351598 385.436Z" fill="url(#paint2_linear_473_1882)"/>
<path d="M402.353 158.97L358.037 324.451C352.718 344.312 341.171 360.756 326.856 371.25C311.301 382.651 292.46 387.265 274.088 382.34C265.427 380.018 260.204 371.418 262.423 363.133C264.642 354.848 273.462 350.014 282.123 352.336C290.249 354.515 299.113 352.085 306.848 346.416C315.82 339.839 323.151 329.185 326.67 316.042L376.839 128.706C386.489 137.837 395.039 148.002 402.353 158.97Z" fill="white"/>
<path d="M261.482 328.763C263.821 337.09 258.742 345.516 250.139 347.58C241.536 349.644 232.665 344.565 230.326 336.238C228.206 328.722 227.219 320.995 227.237 313.355C227.257 305.454 228.328 297.626 230.315 290.207L250.653 214.265C252.871 205.979 261.692 201.145 270.353 203.467C279.015 205.79 284.238 214.389 282.019 222.674L261.682 298.616C260.318 303.707 259.583 308.992 259.569 314.235C259.556 319.196 260.168 324.109 261.481 328.762L261.482 328.763Z" fill="white"/>
<path d="M152.039 196.863L109.853 354.392C117.166 365.361 125.716 375.526 135.366 384.657L183.405 205.272C186.925 192.129 194.255 181.475 203.227 174.899C210.963 169.23 219.827 166.8 227.952 168.978C230.883 169.764 233.492 171.014 235.75 172.641C238.338 174.506 240.662 176.922 242.663 179.767C247.703 186.945 257.747 188.963 265.095 184.273C272.442 179.583 274.313 169.961 269.274 162.783C265.229 157.032 260.339 152.01 254.707 147.95C249.024 143.854 242.747 140.785 235.988 138.973C217.616 134.048 198.775 138.662 183.22 150.063C168.905 160.557 157.358 177.001 152.039 196.863Z" fill="white"/>
<defs>
<linearGradient id="paint0_linear_473_1882" x1="20.4181" y1="234.823" x2="53.4623" y2="399.98" gradientUnits="userSpaceOnUse">
<stop stop-color="#1F92FD"/>
<stop offset="1" stop-color="#41BAFF"/>
</linearGradient>
<linearGradient id="paint1_linear_473_1882" x1="79.6277" y1="113.422" x2="390.055" y2="63.5678" gradientUnits="userSpaceOnUse">
<stop stop-color="#40B9FE"/>
<stop offset="1" stop-color="#1E91FC"/>
</linearGradient>
<linearGradient id="paint2_linear_473_1882" x1="433.075" y1="390.328" x2="121.454" y2="436.403" gradientUnits="userSpaceOnUse">
<stop stop-color="#40B9FE"/>
<stop offset="1" stop-color="#1E91FC"/>
</linearGradient>
</defs>
</svg>
