<svg xmlns="http://www.w3.org/2000/svg" xmlns:xlink="http://www.w3.org/1999/xlink" width="25" height="24" viewBox="0 0 25 24">
    <defs>
        <path id="mhg3e4hr0a" d="M0 0L18 0 18 18 0 18z"/>
    </defs>
    <g fill="none" fill-rule="evenodd" opacity="1">
        <g>
            <g>
                <g>
                    <g>
                        <g>
                            <g>
                                <g>
                                    <path fill="#FFF" d="M8.128 9.842L8.1 9.9 9 9.9 8.971 9.842 8.547 9z" transform="translate(-734 -2008) translate(0 1687) translate(450 286) translate(272 27) translate(12.267 8) translate(3 3)"/>
                                    <g transform="translate(-734 -2008) translate(0 1687) translate(450 286) translate(272 27) translate(12.267 8) translate(3 3)">
                                        <mask id="0r77t4erzb" fill="#fff">
                                            <use xlink:href="#mhg3e4hr0a"/>
                                        </mask>
                                        <path fill="#FFF" d="M16.076 11.21h-.48V8.857h.48v2.353zm-1.058.002h-1.81V8.859h1.763v.43h-1.284v.481h.885v.43h-.885v.583h1.33v.429zM8.947 4.66c-2.031 0-3.792-.914-4.748-2.776 0 0-.01-.259.169-.269.04-.002.091.01.155.04.981 1.627 2.621 2.577 4.425 2.577 1.8-.003 3.446-.964 4.426-2.587.372-.122.335.228.335.228-.956 1.86-2.734 2.784-4.762 2.787zm3.036 6.552h-.406l-.545-1.547-.545 1.547h-.403L9.25 8.857h.518l.53 1.62.543-1.62h.397l.544 1.62.53-1.62h.505l-.833 2.356zm-3.062-.001l-.215-.49H7.609l-.014.034-.204.456h-.496L7.95 8.857h.425l.01.013 1.046 2.342h-.51zm-2.274-1.025c0 .675-.378 1.063-1.037 1.063-.653 0-1.028-.38-1.028-1.043V8.859h.486v1.332c0 .393.195.603.548.603.352 0 .545-.204.545-.587v-1.35h.486v1.33zM3.91 11.214h-.486v-.957H2.326v.957H1.84V8.857h.486v.951h1.098v-.95h.486v2.356zM14.123 0H3.877C1.736 0 0 1.736 0 3.877v10.246C0 16.264 1.736 18 3.877 18h10.246C16.264 18 18 16.264 18 14.123V3.877C18 1.736 16.264 0 14.123 0z" mask="url(#0r77t4erzb)"/>
                                    </g>
                                </g>
                            </g>
                        </g>
                    </g>
                </g>
            </g>
        </g>
    </g>
</svg>
