<svg xmlns="http://www.w3.org/2000/svg" width="109" height="34"><defs><linearGradient id="a" x1="43.768%" x2="58.728%" y1="23.653%" y2="87.003%"><stop offset="7.469%" stop-color="#FFF" stop-opacity=".5"/><stop offset="70%" stop-color="#FFF"/></linearGradient><linearGradient id="b" x1="69.723%" x2="30.811%" y1="83.587%" y2="2.886%"><stop offset="7.469%" stop-color="#FFF" stop-opacity=".5"/><stop offset="60%" stop-color="#FFF"/></linearGradient></defs><g fill="none" fill-rule="evenodd"><path d="M0 0h109v34H0z"/><g fill-rule="nonzero"><path fill="url(#a)" d="M31.204 21.622s-.717 7.146-.86 8.388h2.397s.287-1.935.942-7.432c.123-.997.287-2.992.287-2.992l-2.766 2.036z"/><path fill="url(#b)" d="M24.689 3.237c3.073-.753 5.286.652 6.29 6.8.287 1.792.41 3.807.43 5.884.922-.733 1.824-1.446 2.664-2.117-.082-2.464-.37-4.826-.86-7.004C32.146 2.077 29.093.061 26 .061c-.41 0-.84.04-1.311.122v3.054z"/><path fill="#FFF" d="M26 .04c-3.585 0-10.121 3.055-16.719 10.2C1.823 18.304.021 24.636.021 27.954c0 3.319 2.233 5.945 6.269 5.945s10.51-2.524 20.14-8.978 18.932-14.496 18.932-14.496l-2.008-4.58c-2.07 1.648-11.166 10.342-23.296 18.119C8.4 31.414 4.692 30.193 4.2 29.236c-.43-.814-1.29-3.665 3.422-11.238C12.334 10.424 19.69 5.069 23.439 3.624c.922-.367 1.783-.57 2.582-.59V.04H26zm80.397 15.82v14.15h2.418V15.86h-1.209zm-44.378 6.23v-1.914h-7.786v2.118h4.877l-5.02 5.721.881 1.995h7.212v-2.117h-5.307zm-16.678-6.23l-6.167 14.15h2.725l1.414-3.339h6.433l1.414 3.339h2.725l-6.147-14.15h-2.397zm-1.086 8.633l2.274-5.356 2.275 5.355h-4.549zm51.96-4.541c-3.074 0-5.082 2.2-5.082 5.131 0 3.034 1.988 5.15 5.04 5.15 1.865 0 3.381-.752 4.324-2.035l-1.783-1.323c-.533.773-1.414 1.221-2.52 1.221-1.475 0-2.459-.936-2.622-2.32h7.375v-.999c0-3.054-1.803-4.826-4.732-4.826zm-2.602 4.093c.266-1.364 1.188-2.2 2.5-2.2 1.27 0 2.191.734 2.396 2.2h-4.896zm8.707 5.965h2.418V15.86h-2.418v7.085zm-16.575-7.899c1.106 0 2.028.61 2.479 1.669l2.09-1.12c-.86-1.73-2.192-2.728-4.63-2.728-3.094 0-5.143 2.117-5.143 5.13 0 3.014 2.008 5.152 5.08 5.152 2.193 0 3.791-1.018 4.693-2.668l-2.09-1.12c-.512.998-1.332 1.61-2.48 1.61-1.577 0-2.745-1.324-2.745-2.994 0-1.628 1.168-2.931 2.746-2.931zm-9.159-.509h-.164v-1.426h-2.417v9.834h2.417v-4.56c0-1.772.963-3.156 2.439-3.156.368 0 .737.04 1.086.163v-2.342c-.41-.081-.615-.081-.84-.081-1.168 0-2.152.651-2.52 1.568zm-8.625-1.65c-3.074 0-5.082 2.2-5.082 5.131 0 3.034 1.988 5.15 5.04 5.15 1.865 0 3.381-.752 4.324-2.035l-1.783-1.323c-.532.773-1.413 1.221-2.52 1.221-1.475 0-2.459-.936-2.622-2.32h7.355v-.999c0-3.054-1.782-4.826-4.712-4.826zm-2.602 4.093c.266-1.364 1.188-2.2 2.5-2.2 1.27 0 2.191.734 2.396 2.2h-4.896z"/></g></g></svg>